<svg xmlns="http://www.w3.org/2000/svg"  viewBox="0 0 100 100" width="100px" height="100px"><circle cx="20.5" cy="61.5" r="7.5" fill="#fed5b3"/><path d="M20.5,70c-4.687,0-8.5-3.813-8.5-8.5s3.813-8.5,8.5-8.5s8.5,3.813,8.5,8.5S25.187,70,20.5,70z M20.5,55 c-3.584,0-6.5,2.916-6.5,6.5s2.916,6.5,6.5,6.5s6.5-2.916,6.5-6.5S24.084,55,20.5,55z"/><circle cx="79.5" cy="62.5" r="7.5" fill="#fed5b3"/><path d="M79.5,71c-4.687,0-8.5-3.813-8.5-8.5s3.813-8.5,8.5-8.5s8.5,3.813,8.5,8.5S84.187,71,79.5,71z M79.5,56 c-3.584,0-6.5,2.916-6.5,6.5s2.916,6.5,6.5,6.5s6.5-2.916,6.5-6.5S83.084,56,79.5,56z"/><path fill="#b77748" d="M84,49c-4.629,15.044-15.222,19-34,19s-31.585-5.635-35-21c-2-9,4.741-17.483,7-22 c5-10,15.403-13.031,28-14c13-1,23.014,5.444,28.994,13.607C82.169,28.941,86,42.5,84,49z"/><path d="M50,69c-20.951,0-32.719-7.125-35.976-21.783c-1.703-7.664,2.583-14.919,5.419-19.721c0.668-1.132,1.246-2.11,1.663-2.943 c5.651-11.303,17.739-13.698,28.818-14.55c11.807-0.911,22.69,4.201,29.877,14.013c3.431,4.684,7.26,18.436,5.155,25.278 C79.906,65.703,67.837,69,50,69z M52.589,11.9c-0.832,0-1.669,0.032-2.512,0.097c-14.913,1.147-23.042,5.169-27.182,13.45 c-0.448,0.896-1.042,1.901-1.729,3.066c-2.836,4.801-6.721,11.377-5.189,18.27C19.042,60.576,29.853,67,50,67 c20.241,0,28.889-4.787,33.044-18.294c1.851-6.013-1.729-19.24-4.856-23.508C71.932,16.658,62.707,11.9,52.589,11.9z"/><path fill="#fed5b3" d="M82,56.03C82,74.256,68.225,88,50,88S18,73.225,18,55s13.775-33,32-33S82,37.805,82,56.03z"/><path d="M50,89c-18.505,0-33-14.935-33-34s14.495-34,33-34c18.196,0,33,15.714,33,35.03C83,74.826,68.813,89,50,89z M50,23 c-17.383,0-31,14.056-31,32c0,17.944,13.617,32,31,32c17.673,0,31-13.314,31-30.97C81,37.817,67.094,23,50,23z"/><path fill="#fff" d="M25.536,47.496C25.528,47.665,25.5,47.829,25.5,48c0,5.799,4.701,10.5,10.5,10.5 S46.5,53.799,46.5,48c0-0.431-0.039-0.851-0.091-1.268C39.489,45.552,32.531,45.816,25.536,47.496z"/><path d="M36,59c-6.065,0-11-4.935-11-11c0-0.117,0.01-0.231,0.021-0.346l0.015-0.183c0.011-0.222,0.167-0.41,0.383-0.462 c7.05-1.692,14.142-1.953,21.074-0.771c0.218,0.037,0.386,0.213,0.412,0.432C46.95,47.03,47,47.506,47,48 C47,54.065,42.065,59,36,59z M26.003,47.899C26.001,47.933,26,47.966,26,48c0,5.514,4.486,10,10,10s10-4.486,10-10 c0-0.291-0.02-0.579-0.045-0.837C39.386,46.094,32.68,46.341,26.003,47.899z"/><path fill="#fff" d="M53.517,47.766C53.515,47.845,53.5,47.921,53.5,48c0,5.799,4.701,10.5,10.5,10.5 S74.5,53.799,74.5,48c0-0.487-0.037-0.964-0.102-1.433C67.475,45.532,60.515,45.939,53.517,47.766z"/><path d="M64,59c-6.065,0-11-4.935-11-11c0-0.06,0.005-0.118,0.011-0.176c0.006-0.223,0.164-0.485,0.38-0.542 c7.046-1.839,14.136-2.247,21.081-1.21c0.219,0.033,0.391,0.206,0.421,0.425C74.964,47.008,75,47.514,75,48 C75,54.065,70.065,59,64,59z M54.008,48.156C54.124,53.637,58.563,58,64,58c5.514,0,10-4.486,10-10 c0-0.323-0.018-0.656-0.053-0.993C67.378,46.075,60.675,46.462,54.008,48.156z"/><path d="M51.939,64.478c-2.858,0-5.686-3.485-5.83-3.665c-0.172-0.216-0.137-0.53,0.078-0.703c0.217-0.172,0.531-0.137,0.703,0.078 c0.038,0.047,3.747,4.619,6.333,2.896c0.441-0.294,0.679-0.672,0.727-1.156c0.168-1.695-1.966-4.237-2.803-5.074 c-0.195-0.195-0.195-0.512,0-0.707s0.512-0.195,0.707,0c0.137,0.137,3.339,3.371,3.091,5.88c-0.078,0.79-0.471,1.426-1.167,1.89 C53.182,64.313,52.56,64.478,51.939,64.478z"/><path fill="#fed5b3" d="M30.545,39.029c-2.916,1.781-4.894,4.948-5.026,8.586c7.009-1.842,13.979-2.12,20.909-0.801 c-0.343-3.053-1.995-5.711-4.381-7.397"/><path fill="#fed5b3" d="M57.538,39.725c-0.858,0.672-1.609,1.475-2.223,2.378c-0.427,0.629-0.788,1.307-1.073,2.023 c-0.463,1.167-0.723,2.437-0.737,3.766c7.005-1.99,13.97-2.418,20.896-1.258c-0.381-2.926-1.963-5.475-4.237-7.131"/><path d="M30.5,35c-0.17,0-0.335-0.086-0.429-0.243c-0.142-0.237-0.065-0.544,0.171-0.686c0.211-0.127,5.268-3.088,12.395-1.052 c0.266,0.076,0.419,0.353,0.344,0.618c-0.076,0.267-0.355,0.416-0.618,0.344c-6.714-1.919-11.558,0.919-11.605,0.948 C30.677,34.977,30.588,35,30.5,35z"/><path fill="#ead6c7" d="M41.5,74.5c0,0,9.958-3.295,19,0"/><path d="M60.5,75c-0.057,0-0.114-0.01-0.171-0.03c-8.77-3.195-18.574-0.027-18.672,0.005c-0.261,0.087-0.545-0.056-0.631-0.317 c-0.087-0.263,0.056-0.545,0.317-0.632c0.414-0.137,10.227-3.313,19.328,0.005c0.26,0.095,0.394,0.382,0.299,0.641 C60.896,74.874,60.704,75,60.5,75z"/><g><path d="M69.5,35c-0.075,0-0.151-0.017-0.224-0.053c-5.76-2.879-12.571-0.986-12.639-0.966c-0.271,0.075-0.543-0.079-0.618-0.344 c-0.076-0.265,0.077-0.542,0.343-0.618c0.295-0.083,7.257-2.018,13.361,1.034c0.247,0.124,0.347,0.424,0.224,0.671 C69.859,34.899,69.683,35,69.5,35z"/></g><g><circle cx="35.5" cy="47.5" r="1.5"/></g><g><circle cx="64.5" cy="47.5" r="1.5"/></g><g><path d="M25.52,48.116c-0.112,0-0.223-0.038-0.313-0.11c-0.124-0.099-0.193-0.25-0.187-0.408c0.064-1.787,0.569-3.546,1.458-5.089 c0.137-0.239,0.443-0.321,0.683-0.184s0.322,0.443,0.184,0.683c-0.696,1.208-1.132,2.563-1.278,3.953 c6.616-1.645,13.259-1.899,19.766-0.763c-0.467-2.559-1.926-4.854-4.073-6.372c-0.226-0.159-0.279-0.471-0.12-0.697 c0.159-0.225,0.472-0.279,0.697-0.12c2.566,1.814,4.239,4.639,4.589,7.75c0.018,0.158-0.041,0.314-0.157,0.422 s-0.281,0.154-0.433,0.125c-6.801-1.293-13.761-1.026-20.689,0.793C25.604,48.11,25.562,48.116,25.52,48.116z"/></g><g><path d="M28.692,40.968c-0.13,0-0.26-0.051-0.358-0.151c-0.192-0.198-0.188-0.515,0.01-0.707c0.588-0.573,1.241-1.08,1.94-1.507 c0.236-0.144,0.544-0.07,0.688,0.166c0.144,0.236,0.07,0.543-0.166,0.688c-0.636,0.388-1.229,0.849-1.765,1.37 C28.944,40.921,28.818,40.968,28.692,40.968z"/></g><g><path d="M53.506,48.393c-0.108,0-0.215-0.035-0.304-0.103c-0.125-0.096-0.198-0.245-0.196-0.402 c0.013-1.318,0.257-2.606,0.726-3.829c0.099-0.257,0.39-0.385,0.646-0.288c0.258,0.099,0.387,0.388,0.288,0.646 c-0.346,0.902-0.558,1.845-0.631,2.81c6.607-1.784,13.247-2.187,19.761-1.196c-0.49-2.441-1.896-4.646-3.925-6.124 c-0.224-0.163-0.272-0.476-0.11-0.699c0.162-0.224,0.476-0.271,0.698-0.11c2.435,1.773,4.052,4.496,4.439,7.471 c0.021,0.157-0.035,0.314-0.149,0.424s-0.27,0.157-0.43,0.133c-6.802-1.14-13.758-0.721-20.676,1.246 C53.598,48.386,53.552,48.393,53.506,48.393z"/></g><g><path d="M55.429,42.439c-0.101,0-0.201-0.03-0.289-0.092c-0.225-0.159-0.278-0.471-0.119-0.697 c0.619-0.875,1.362-1.655,2.209-2.319c0.218-0.17,0.531-0.132,0.702,0.085c0.17,0.218,0.132,0.532-0.085,0.702 c-0.771,0.604-1.447,1.313-2.01,2.109C55.739,42.366,55.585,42.439,55.429,42.439z"/></g></svg>